<mxfile host="app.diagrams.net" modified="2024-05-24T20:54:12.173Z" agent="Mozilla/5.0 (Windows NT 10.0; Win64; x64) AppleWebKit/537.36 (KHTML, like Gecko) Chrome/125.0.0.0 Safari/537.36 Edg/125.0.0.0" etag="H2cIFVL5tf2YF7QwoDzT" version="24.4.8" type="device">
  <diagram name="Page-1" id="a0Ihity4697-lHvOdYYa">
    <mxGraphModel dx="4787" dy="1803" grid="0" gridSize="10" guides="1" tooltips="1" connect="1" arrows="1" fold="1" page="1" pageScale="1" pageWidth="850" pageHeight="1100" math="0" shadow="0">
      <root>
        <mxCell id="0" />
        <mxCell id="1" parent="0" />
        <mxCell id="LKpRH9-m_TJ6t7XHh2Bs-6" value="" style="edgeStyle=orthogonalEdgeStyle;rounded=0;orthogonalLoop=1;jettySize=auto;html=1;" parent="1" source="LKpRH9-m_TJ6t7XHh2Bs-2" target="LKpRH9-m_TJ6t7XHh2Bs-5" edge="1">
          <mxGeometry relative="1" as="geometry" />
        </mxCell>
        <mxCell id="LKpRH9-m_TJ6t7XHh2Bs-2" value="1" style="ellipse;whiteSpace=wrap;html=1;aspect=fixed;" parent="1" vertex="1">
          <mxGeometry x="44" y="25" width="80" height="80" as="geometry" />
        </mxCell>
        <mxCell id="LKpRH9-m_TJ6t7XHh2Bs-8" value="" style="edgeStyle=orthogonalEdgeStyle;rounded=0;orthogonalLoop=1;jettySize=auto;html=1;" parent="1" source="LKpRH9-m_TJ6t7XHh2Bs-5" target="LKpRH9-m_TJ6t7XHh2Bs-7" edge="1">
          <mxGeometry relative="1" as="geometry" />
        </mxCell>
        <mxCell id="LKpRH9-m_TJ6t7XHh2Bs-10" value="" style="edgeStyle=orthogonalEdgeStyle;rounded=0;orthogonalLoop=1;jettySize=auto;html=1;" parent="1" source="LKpRH9-m_TJ6t7XHh2Bs-5" target="LKpRH9-m_TJ6t7XHh2Bs-9" edge="1">
          <mxGeometry relative="1" as="geometry" />
        </mxCell>
        <mxCell id="LKpRH9-m_TJ6t7XHh2Bs-5" value="&lt;div&gt;2&lt;/div&gt;" style="ellipse;whiteSpace=wrap;html=1;aspect=fixed;" parent="1" vertex="1">
          <mxGeometry x="44" y="185" width="80" height="80" as="geometry" />
        </mxCell>
        <mxCell id="LKpRH9-m_TJ6t7XHh2Bs-15" value="" style="edgeStyle=orthogonalEdgeStyle;rounded=0;orthogonalLoop=1;jettySize=auto;html=1;" parent="1" source="LKpRH9-m_TJ6t7XHh2Bs-7" target="LKpRH9-m_TJ6t7XHh2Bs-14" edge="1">
          <mxGeometry relative="1" as="geometry" />
        </mxCell>
        <mxCell id="LKpRH9-m_TJ6t7XHh2Bs-7" value="4" style="ellipse;whiteSpace=wrap;html=1;" parent="1" vertex="1">
          <mxGeometry x="44" y="345" width="80" height="80" as="geometry" />
        </mxCell>
        <mxCell id="LKpRH9-m_TJ6t7XHh2Bs-13" value="" style="edgeStyle=orthogonalEdgeStyle;rounded=0;orthogonalLoop=1;jettySize=auto;html=1;" parent="1" source="LKpRH9-m_TJ6t7XHh2Bs-9" target="LKpRH9-m_TJ6t7XHh2Bs-12" edge="1">
          <mxGeometry relative="1" as="geometry" />
        </mxCell>
        <mxCell id="LKpRH9-m_TJ6t7XHh2Bs-9" value="3" style="ellipse;whiteSpace=wrap;html=1;" parent="1" vertex="1">
          <mxGeometry x="204" y="185" width="80" height="80" as="geometry" />
        </mxCell>
        <mxCell id="LKpRH9-m_TJ6t7XHh2Bs-12" value="exit" style="ellipse;whiteSpace=wrap;html=1;" parent="1" vertex="1">
          <mxGeometry x="535" y="185" width="80" height="80" as="geometry" />
        </mxCell>
        <mxCell id="LKpRH9-m_TJ6t7XHh2Bs-17" value="" style="edgeStyle=orthogonalEdgeStyle;rounded=0;orthogonalLoop=1;jettySize=auto;html=1;" parent="1" source="LKpRH9-m_TJ6t7XHh2Bs-14" target="LKpRH9-m_TJ6t7XHh2Bs-16" edge="1">
          <mxGeometry relative="1" as="geometry" />
        </mxCell>
        <mxCell id="LKpRH9-m_TJ6t7XHh2Bs-14" value="5.1" style="ellipse;whiteSpace=wrap;html=1;" parent="1" vertex="1">
          <mxGeometry x="44" y="505" width="80" height="80" as="geometry" />
        </mxCell>
        <mxCell id="LKpRH9-m_TJ6t7XHh2Bs-19" value="" style="edgeStyle=orthogonalEdgeStyle;rounded=0;orthogonalLoop=1;jettySize=auto;html=1;" parent="1" source="LKpRH9-m_TJ6t7XHh2Bs-16" target="LKpRH9-m_TJ6t7XHh2Bs-18" edge="1">
          <mxGeometry relative="1" as="geometry" />
        </mxCell>
        <mxCell id="LKpRH9-m_TJ6t7XHh2Bs-92" style="edgeStyle=orthogonalEdgeStyle;rounded=0;orthogonalLoop=1;jettySize=auto;html=1;exitX=1;exitY=0;exitDx=0;exitDy=0;entryX=0;entryY=0.5;entryDx=0;entryDy=0;" parent="1" source="LKpRH9-m_TJ6t7XHh2Bs-16" target="LKpRH9-m_TJ6t7XHh2Bs-89" edge="1">
          <mxGeometry relative="1" as="geometry" />
        </mxCell>
        <mxCell id="LKpRH9-m_TJ6t7XHh2Bs-16" value="5.2" style="ellipse;whiteSpace=wrap;html=1;" parent="1" vertex="1">
          <mxGeometry x="44" y="665" width="80" height="80" as="geometry" />
        </mxCell>
        <mxCell id="LKpRH9-m_TJ6t7XHh2Bs-21" value="" style="edgeStyle=orthogonalEdgeStyle;rounded=0;orthogonalLoop=1;jettySize=auto;html=1;" parent="1" source="LKpRH9-m_TJ6t7XHh2Bs-18" target="LKpRH9-m_TJ6t7XHh2Bs-20" edge="1">
          <mxGeometry relative="1" as="geometry" />
        </mxCell>
        <mxCell id="LKpRH9-m_TJ6t7XHh2Bs-18" value="6" style="ellipse;whiteSpace=wrap;html=1;" parent="1" vertex="1">
          <mxGeometry x="204" y="665" width="80" height="80" as="geometry" />
        </mxCell>
        <mxCell id="LKpRH9-m_TJ6t7XHh2Bs-23" value="" style="edgeStyle=orthogonalEdgeStyle;rounded=0;orthogonalLoop=1;jettySize=auto;html=1;" parent="1" source="LKpRH9-m_TJ6t7XHh2Bs-20" target="LKpRH9-m_TJ6t7XHh2Bs-22" edge="1">
          <mxGeometry relative="1" as="geometry" />
        </mxCell>
        <mxCell id="LKpRH9-m_TJ6t7XHh2Bs-25" value="" style="edgeStyle=orthogonalEdgeStyle;rounded=0;orthogonalLoop=1;jettySize=auto;html=1;" parent="1" source="LKpRH9-m_TJ6t7XHh2Bs-20" target="LKpRH9-m_TJ6t7XHh2Bs-24" edge="1">
          <mxGeometry relative="1" as="geometry" />
        </mxCell>
        <mxCell id="LKpRH9-m_TJ6t7XHh2Bs-20" value="7" style="ellipse;whiteSpace=wrap;html=1;" parent="1" vertex="1">
          <mxGeometry x="204" y="825" width="80" height="80" as="geometry" />
        </mxCell>
        <mxCell id="LKpRH9-m_TJ6t7XHh2Bs-34" style="edgeStyle=orthogonalEdgeStyle;rounded=0;orthogonalLoop=1;jettySize=auto;html=1;exitX=0.5;exitY=1;exitDx=0;exitDy=0;entryX=0.5;entryY=0;entryDx=0;entryDy=0;" parent="1" source="LKpRH9-m_TJ6t7XHh2Bs-22" target="LKpRH9-m_TJ6t7XHh2Bs-24" edge="1">
          <mxGeometry relative="1" as="geometry" />
        </mxCell>
        <mxCell id="LKpRH9-m_TJ6t7XHh2Bs-22" value="8" style="ellipse;whiteSpace=wrap;html=1;" parent="1" vertex="1">
          <mxGeometry x="364" y="825" width="80" height="80" as="geometry" />
        </mxCell>
        <mxCell id="LKpRH9-m_TJ6t7XHh2Bs-36" value="" style="edgeStyle=orthogonalEdgeStyle;rounded=0;orthogonalLoop=1;jettySize=auto;html=1;" parent="1" source="LKpRH9-m_TJ6t7XHh2Bs-24" target="LKpRH9-m_TJ6t7XHh2Bs-35" edge="1">
          <mxGeometry relative="1" as="geometry" />
        </mxCell>
        <mxCell id="LKpRH9-m_TJ6t7XHh2Bs-68" value="" style="edgeStyle=orthogonalEdgeStyle;rounded=0;orthogonalLoop=1;jettySize=auto;html=1;" parent="1" source="LKpRH9-m_TJ6t7XHh2Bs-24" target="LKpRH9-m_TJ6t7XHh2Bs-67" edge="1">
          <mxGeometry relative="1" as="geometry" />
        </mxCell>
        <mxCell id="LKpRH9-m_TJ6t7XHh2Bs-24" value="9" style="ellipse;whiteSpace=wrap;html=1;" parent="1" vertex="1">
          <mxGeometry x="204" y="985" width="80" height="80" as="geometry" />
        </mxCell>
        <mxCell id="LKpRH9-m_TJ6t7XHh2Bs-38" value="" style="edgeStyle=orthogonalEdgeStyle;rounded=0;orthogonalLoop=1;jettySize=auto;html=1;" parent="1" source="LKpRH9-m_TJ6t7XHh2Bs-35" target="LKpRH9-m_TJ6t7XHh2Bs-37" edge="1">
          <mxGeometry relative="1" as="geometry" />
        </mxCell>
        <mxCell id="LKpRH9-m_TJ6t7XHh2Bs-35" value="10" style="ellipse;whiteSpace=wrap;html=1;" parent="1" vertex="1">
          <mxGeometry x="364" y="985" width="80" height="80" as="geometry" />
        </mxCell>
        <mxCell id="LKpRH9-m_TJ6t7XHh2Bs-40" value="" style="edgeStyle=orthogonalEdgeStyle;rounded=0;orthogonalLoop=1;jettySize=auto;html=1;" parent="1" source="LKpRH9-m_TJ6t7XHh2Bs-37" target="LKpRH9-m_TJ6t7XHh2Bs-39" edge="1">
          <mxGeometry relative="1" as="geometry" />
        </mxCell>
        <mxCell id="LKpRH9-m_TJ6t7XHh2Bs-37" value="11" style="ellipse;whiteSpace=wrap;html=1;" parent="1" vertex="1">
          <mxGeometry x="364" y="1145" width="80" height="80" as="geometry" />
        </mxCell>
        <mxCell id="LKpRH9-m_TJ6t7XHh2Bs-42" value="" style="edgeStyle=orthogonalEdgeStyle;rounded=0;orthogonalLoop=1;jettySize=auto;html=1;" parent="1" source="LKpRH9-m_TJ6t7XHh2Bs-39" target="LKpRH9-m_TJ6t7XHh2Bs-41" edge="1">
          <mxGeometry relative="1" as="geometry" />
        </mxCell>
        <mxCell id="LKpRH9-m_TJ6t7XHh2Bs-39" value="12.1" style="ellipse;whiteSpace=wrap;html=1;" parent="1" vertex="1">
          <mxGeometry x="364" y="1305" width="80" height="80" as="geometry" />
        </mxCell>
        <mxCell id="LKpRH9-m_TJ6t7XHh2Bs-44" value="" style="edgeStyle=orthogonalEdgeStyle;rounded=0;orthogonalLoop=1;jettySize=auto;html=1;" parent="1" source="LKpRH9-m_TJ6t7XHh2Bs-41" target="LKpRH9-m_TJ6t7XHh2Bs-43" edge="1">
          <mxGeometry relative="1" as="geometry" />
        </mxCell>
        <mxCell id="LKpRH9-m_TJ6t7XHh2Bs-107" value="" style="edgeStyle=orthogonalEdgeStyle;rounded=0;orthogonalLoop=1;jettySize=auto;html=1;" parent="1" source="LKpRH9-m_TJ6t7XHh2Bs-41" target="LKpRH9-m_TJ6t7XHh2Bs-106" edge="1">
          <mxGeometry relative="1" as="geometry" />
        </mxCell>
        <mxCell id="LKpRH9-m_TJ6t7XHh2Bs-41" value="12.2&lt;div&gt;&lt;br&gt;&lt;/div&gt;" style="ellipse;whiteSpace=wrap;html=1;" parent="1" vertex="1">
          <mxGeometry x="364" y="1465" width="80" height="80" as="geometry" />
        </mxCell>
        <mxCell id="LKpRH9-m_TJ6t7XHh2Bs-46" value="" style="edgeStyle=orthogonalEdgeStyle;rounded=0;orthogonalLoop=1;jettySize=auto;html=1;" parent="1" source="LKpRH9-m_TJ6t7XHh2Bs-43" target="LKpRH9-m_TJ6t7XHh2Bs-45" edge="1">
          <mxGeometry relative="1" as="geometry" />
        </mxCell>
        <mxCell id="LKpRH9-m_TJ6t7XHh2Bs-43" value="13" style="ellipse;whiteSpace=wrap;html=1;" parent="1" vertex="1">
          <mxGeometry x="524" y="1465" width="80" height="80" as="geometry" />
        </mxCell>
        <mxCell id="LKpRH9-m_TJ6t7XHh2Bs-48" value="" style="edgeStyle=orthogonalEdgeStyle;rounded=0;orthogonalLoop=1;jettySize=auto;html=1;" parent="1" source="LKpRH9-m_TJ6t7XHh2Bs-45" target="LKpRH9-m_TJ6t7XHh2Bs-47" edge="1">
          <mxGeometry relative="1" as="geometry" />
        </mxCell>
        <mxCell id="LKpRH9-m_TJ6t7XHh2Bs-51" value="" style="edgeStyle=orthogonalEdgeStyle;rounded=0;orthogonalLoop=1;jettySize=auto;html=1;" parent="1" source="LKpRH9-m_TJ6t7XHh2Bs-45" target="LKpRH9-m_TJ6t7XHh2Bs-50" edge="1">
          <mxGeometry relative="1" as="geometry" />
        </mxCell>
        <mxCell id="LKpRH9-m_TJ6t7XHh2Bs-45" value="14" style="ellipse;whiteSpace=wrap;html=1;" parent="1" vertex="1">
          <mxGeometry x="524" y="1625" width="80" height="80" as="geometry" />
        </mxCell>
        <mxCell id="LKpRH9-m_TJ6t7XHh2Bs-49" style="edgeStyle=orthogonalEdgeStyle;rounded=0;orthogonalLoop=1;jettySize=auto;html=1;exitX=0.5;exitY=0;exitDx=0;exitDy=0;" parent="1" source="LKpRH9-m_TJ6t7XHh2Bs-47" target="LKpRH9-m_TJ6t7XHh2Bs-12" edge="1">
          <mxGeometry relative="1" as="geometry" />
        </mxCell>
        <mxCell id="LKpRH9-m_TJ6t7XHh2Bs-47" value="15" style="ellipse;whiteSpace=wrap;html=1;" parent="1" vertex="1">
          <mxGeometry x="684" y="1625" width="80" height="80" as="geometry" />
        </mxCell>
        <mxCell id="LKpRH9-m_TJ6t7XHh2Bs-109" style="edgeStyle=orthogonalEdgeStyle;rounded=0;orthogonalLoop=1;jettySize=auto;html=1;exitX=0;exitY=0.5;exitDx=0;exitDy=0;entryX=0;entryY=0.5;entryDx=0;entryDy=0;" parent="1" source="LKpRH9-m_TJ6t7XHh2Bs-50" target="LKpRH9-m_TJ6t7XHh2Bs-41" edge="1">
          <mxGeometry relative="1" as="geometry">
            <Array as="points">
              <mxPoint x="179" y="1825" />
              <mxPoint x="179" y="1505" />
            </Array>
          </mxGeometry>
        </mxCell>
        <mxCell id="LKpRH9-m_TJ6t7XHh2Bs-50" value="12.3" style="ellipse;whiteSpace=wrap;html=1;" parent="1" vertex="1">
          <mxGeometry x="524" y="1785" width="80" height="80" as="geometry" />
        </mxCell>
        <mxCell id="LKpRH9-m_TJ6t7XHh2Bs-62" value="" style="edgeStyle=orthogonalEdgeStyle;rounded=0;orthogonalLoop=1;jettySize=auto;html=1;" parent="1" source="LKpRH9-m_TJ6t7XHh2Bs-59" target="LKpRH9-m_TJ6t7XHh2Bs-61" edge="1">
          <mxGeometry relative="1" as="geometry" />
        </mxCell>
        <mxCell id="LKpRH9-m_TJ6t7XHh2Bs-64" value="" style="edgeStyle=orthogonalEdgeStyle;rounded=0;orthogonalLoop=1;jettySize=auto;html=1;" parent="1" source="LKpRH9-m_TJ6t7XHh2Bs-59" target="LKpRH9-m_TJ6t7XHh2Bs-63" edge="1">
          <mxGeometry relative="1" as="geometry" />
        </mxCell>
        <mxCell id="LKpRH9-m_TJ6t7XHh2Bs-59" value="17" style="ellipse;whiteSpace=wrap;html=1;aspect=fixed;" parent="1" vertex="1">
          <mxGeometry x="364" y="1910" width="80" height="80" as="geometry" />
        </mxCell>
        <mxCell id="LKpRH9-m_TJ6t7XHh2Bs-82" style="edgeStyle=orthogonalEdgeStyle;rounded=0;orthogonalLoop=1;jettySize=auto;html=1;exitX=0.5;exitY=1;exitDx=0;exitDy=0;entryX=0;entryY=0.5;entryDx=0;entryDy=0;" parent="1" source="LKpRH9-m_TJ6t7XHh2Bs-61" target="LKpRH9-m_TJ6t7XHh2Bs-78" edge="1">
          <mxGeometry relative="1" as="geometry" />
        </mxCell>
        <mxCell id="LKpRH9-m_TJ6t7XHh2Bs-61" value="18" style="ellipse;whiteSpace=wrap;html=1;" parent="1" vertex="1">
          <mxGeometry x="524" y="1910" width="80" height="80" as="geometry" />
        </mxCell>
        <mxCell id="LKpRH9-m_TJ6t7XHh2Bs-66" value="" style="edgeStyle=orthogonalEdgeStyle;rounded=0;orthogonalLoop=1;jettySize=auto;html=1;" parent="1" source="LKpRH9-m_TJ6t7XHh2Bs-63" target="LKpRH9-m_TJ6t7XHh2Bs-65" edge="1">
          <mxGeometry relative="1" as="geometry" />
        </mxCell>
        <mxCell id="LKpRH9-m_TJ6t7XHh2Bs-63" value="19" style="ellipse;whiteSpace=wrap;html=1;" parent="1" vertex="1">
          <mxGeometry x="364" y="2070" width="80" height="80" as="geometry" />
        </mxCell>
        <mxCell id="LKpRH9-m_TJ6t7XHh2Bs-81" style="edgeStyle=orthogonalEdgeStyle;rounded=0;orthogonalLoop=1;jettySize=auto;html=1;exitX=0.5;exitY=0;exitDx=0;exitDy=0;" parent="1" source="LKpRH9-m_TJ6t7XHh2Bs-65" target="LKpRH9-m_TJ6t7XHh2Bs-78" edge="1">
          <mxGeometry relative="1" as="geometry" />
        </mxCell>
        <mxCell id="LKpRH9-m_TJ6t7XHh2Bs-65" value="20" style="ellipse;whiteSpace=wrap;html=1;" parent="1" vertex="1">
          <mxGeometry x="524" y="2070" width="80" height="80" as="geometry" />
        </mxCell>
        <mxCell id="LKpRH9-m_TJ6t7XHh2Bs-76" style="edgeStyle=orthogonalEdgeStyle;rounded=0;orthogonalLoop=1;jettySize=auto;html=1;exitX=0.5;exitY=1;exitDx=0;exitDy=0;entryX=0.5;entryY=1;entryDx=0;entryDy=0;" parent="1" source="LKpRH9-m_TJ6t7XHh2Bs-67" target="LKpRH9-m_TJ6t7XHh2Bs-71" edge="1">
          <mxGeometry relative="1" as="geometry">
            <Array as="points">
              <mxPoint x="244" y="1267" />
              <mxPoint x="575" y="1267" />
            </Array>
          </mxGeometry>
        </mxCell>
        <mxCell id="LKpRH9-m_TJ6t7XHh2Bs-67" value="21" style="ellipse;whiteSpace=wrap;html=1;" parent="1" vertex="1">
          <mxGeometry x="204" y="1145" width="80" height="80" as="geometry" />
        </mxCell>
        <mxCell id="LKpRH9-m_TJ6t7XHh2Bs-77" style="edgeStyle=orthogonalEdgeStyle;rounded=0;orthogonalLoop=1;jettySize=auto;html=1;exitX=0.5;exitY=0;exitDx=0;exitDy=0;" parent="1" source="LKpRH9-m_TJ6t7XHh2Bs-71" target="LKpRH9-m_TJ6t7XHh2Bs-12" edge="1">
          <mxGeometry relative="1" as="geometry" />
        </mxCell>
        <mxCell id="LKpRH9-m_TJ6t7XHh2Bs-71" value="22" style="ellipse;whiteSpace=wrap;html=1;aspect=fixed;" parent="1" vertex="1">
          <mxGeometry x="535" y="1145" width="80" height="80" as="geometry" />
        </mxCell>
        <mxCell id="LKpRH9-m_TJ6t7XHh2Bs-84" value="" style="edgeStyle=orthogonalEdgeStyle;rounded=0;orthogonalLoop=1;jettySize=auto;html=1;" parent="1" source="LKpRH9-m_TJ6t7XHh2Bs-78" target="LKpRH9-m_TJ6t7XHh2Bs-83" edge="1">
          <mxGeometry relative="1" as="geometry" />
        </mxCell>
        <mxCell id="YQmlb0vGFmBTFwwZSKuE-2" style="edgeStyle=orthogonalEdgeStyle;rounded=0;orthogonalLoop=1;jettySize=auto;html=1;exitX=0.5;exitY=1;exitDx=0;exitDy=0;" edge="1" parent="1" source="LKpRH9-m_TJ6t7XHh2Bs-78" target="LKpRH9-m_TJ6t7XHh2Bs-85">
          <mxGeometry relative="1" as="geometry">
            <Array as="points">
              <mxPoint x="724" y="2173" />
              <mxPoint x="84" y="2173" />
            </Array>
          </mxGeometry>
        </mxCell>
        <mxCell id="LKpRH9-m_TJ6t7XHh2Bs-78" value="23" style="ellipse;whiteSpace=wrap;html=1;aspect=fixed;" parent="1" vertex="1">
          <mxGeometry x="684" y="1992" width="80" height="80" as="geometry" />
        </mxCell>
        <mxCell id="LKpRH9-m_TJ6t7XHh2Bs-87" style="edgeStyle=orthogonalEdgeStyle;rounded=0;orthogonalLoop=1;jettySize=auto;html=1;exitX=0.5;exitY=1;exitDx=0;exitDy=0;" parent="1" source="LKpRH9-m_TJ6t7XHh2Bs-83" target="LKpRH9-m_TJ6t7XHh2Bs-85" edge="1">
          <mxGeometry relative="1" as="geometry">
            <Array as="points">
              <mxPoint x="884" y="2173" />
              <mxPoint x="84" y="2173" />
            </Array>
          </mxGeometry>
        </mxCell>
        <mxCell id="LKpRH9-m_TJ6t7XHh2Bs-83" value="24" style="ellipse;whiteSpace=wrap;html=1;" parent="1" vertex="1">
          <mxGeometry x="844" y="1992" width="80" height="80" as="geometry" />
        </mxCell>
        <mxCell id="LKpRH9-m_TJ6t7XHh2Bs-86" style="edgeStyle=orthogonalEdgeStyle;rounded=0;orthogonalLoop=1;jettySize=auto;html=1;exitX=0.5;exitY=0;exitDx=0;exitDy=0;entryX=0.5;entryY=1;entryDx=0;entryDy=0;" parent="1" source="LKpRH9-m_TJ6t7XHh2Bs-85" target="LKpRH9-m_TJ6t7XHh2Bs-16" edge="1">
          <mxGeometry relative="1" as="geometry" />
        </mxCell>
        <mxCell id="LKpRH9-m_TJ6t7XHh2Bs-85" value="5.3" style="ellipse;whiteSpace=wrap;html=1;aspect=fixed;" parent="1" vertex="1">
          <mxGeometry x="44" y="825" width="80" height="80" as="geometry" />
        </mxCell>
        <mxCell id="LKpRH9-m_TJ6t7XHh2Bs-112" value="" style="edgeStyle=orthogonalEdgeStyle;rounded=0;orthogonalLoop=1;jettySize=auto;html=1;" parent="1" source="LKpRH9-m_TJ6t7XHh2Bs-89" target="LKpRH9-m_TJ6t7XHh2Bs-111" edge="1">
          <mxGeometry relative="1" as="geometry" />
        </mxCell>
        <mxCell id="LKpRH9-m_TJ6t7XHh2Bs-89" value="25" style="ellipse;whiteSpace=wrap;html=1;aspect=fixed;" parent="1" vertex="1">
          <mxGeometry x="204" y="505" width="80" height="80" as="geometry" />
        </mxCell>
        <mxCell id="LKpRH9-m_TJ6t7XHh2Bs-110" style="edgeStyle=orthogonalEdgeStyle;rounded=0;orthogonalLoop=1;jettySize=auto;html=1;exitX=0.5;exitY=1;exitDx=0;exitDy=0;entryX=0.5;entryY=0;entryDx=0;entryDy=0;" parent="1" source="LKpRH9-m_TJ6t7XHh2Bs-106" target="LKpRH9-m_TJ6t7XHh2Bs-59" edge="1">
          <mxGeometry relative="1" as="geometry" />
        </mxCell>
        <mxCell id="LKpRH9-m_TJ6t7XHh2Bs-106" value="16" style="ellipse;whiteSpace=wrap;html=1;" parent="1" vertex="1">
          <mxGeometry x="364" y="1625" width="80" height="80" as="geometry" />
        </mxCell>
        <mxCell id="LKpRH9-m_TJ6t7XHh2Bs-114" value="" style="edgeStyle=orthogonalEdgeStyle;rounded=0;orthogonalLoop=1;jettySize=auto;html=1;" parent="1" source="LKpRH9-m_TJ6t7XHh2Bs-111" target="LKpRH9-m_TJ6t7XHh2Bs-113" edge="1">
          <mxGeometry relative="1" as="geometry" />
        </mxCell>
        <mxCell id="LKpRH9-m_TJ6t7XHh2Bs-116" value="" style="edgeStyle=orthogonalEdgeStyle;rounded=0;orthogonalLoop=1;jettySize=auto;html=1;" parent="1" source="LKpRH9-m_TJ6t7XHh2Bs-111" target="LKpRH9-m_TJ6t7XHh2Bs-115" edge="1">
          <mxGeometry relative="1" as="geometry" />
        </mxCell>
        <mxCell id="LKpRH9-m_TJ6t7XHh2Bs-111" value="26" style="ellipse;whiteSpace=wrap;html=1;" parent="1" vertex="1">
          <mxGeometry x="364" y="505" width="80" height="80" as="geometry" />
        </mxCell>
        <mxCell id="LKpRH9-m_TJ6t7XHh2Bs-122" style="edgeStyle=orthogonalEdgeStyle;rounded=0;orthogonalLoop=1;jettySize=auto;html=1;exitX=0.5;exitY=0;exitDx=0;exitDy=0;entryX=0;entryY=0.5;entryDx=0;entryDy=0;" parent="1" source="LKpRH9-m_TJ6t7XHh2Bs-113" target="LKpRH9-m_TJ6t7XHh2Bs-12" edge="1">
          <mxGeometry relative="1" as="geometry" />
        </mxCell>
        <mxCell id="LKpRH9-m_TJ6t7XHh2Bs-113" value="27" style="ellipse;whiteSpace=wrap;html=1;" parent="1" vertex="1">
          <mxGeometry x="364" y="345" width="80" height="80" as="geometry" />
        </mxCell>
        <mxCell id="LKpRH9-m_TJ6t7XHh2Bs-119" value="" style="edgeStyle=orthogonalEdgeStyle;rounded=0;orthogonalLoop=1;jettySize=auto;html=1;" parent="1" source="LKpRH9-m_TJ6t7XHh2Bs-115" target="LKpRH9-m_TJ6t7XHh2Bs-118" edge="1">
          <mxGeometry relative="1" as="geometry" />
        </mxCell>
        <mxCell id="LKpRH9-m_TJ6t7XHh2Bs-115" value="28" style="ellipse;whiteSpace=wrap;html=1;" parent="1" vertex="1">
          <mxGeometry x="684" y="505" width="80" height="80" as="geometry" />
        </mxCell>
        <mxCell id="LKpRH9-m_TJ6t7XHh2Bs-121" style="edgeStyle=orthogonalEdgeStyle;rounded=0;orthogonalLoop=1;jettySize=auto;html=1;exitX=0.5;exitY=0;exitDx=0;exitDy=0;entryX=1;entryY=0.5;entryDx=0;entryDy=0;" parent="1" source="LKpRH9-m_TJ6t7XHh2Bs-118" target="LKpRH9-m_TJ6t7XHh2Bs-12" edge="1">
          <mxGeometry relative="1" as="geometry" />
        </mxCell>
        <mxCell id="LKpRH9-m_TJ6t7XHh2Bs-118" value="29" style="ellipse;whiteSpace=wrap;html=1;" parent="1" vertex="1">
          <mxGeometry x="684" y="345" width="80" height="80" as="geometry" />
        </mxCell>
      </root>
    </mxGraphModel>
  </diagram>
</mxfile>
